<?xml version="1.0" standalone="no"?><!DOCTYPE svg PUBLIC "-//W3C//DTD SVG 1.1//EN" "http://www.w3.org/Graphics/SVG/1.1/DTD/svg11.dtd"><svg t="1535435192177" class="icon" style="" viewBox="0 0 1024 1024" version="1.1" xmlns="http://www.w3.org/2000/svg" p-id="5953" xmlns:xlink="http://www.w3.org/1999/xlink" width="26" height="26"><defs><style type="text/css"></style></defs><path d="M262.640746 124.396171l-0.00921 0.005117c22.296819-22.296819 47.971571-37.529755 76.347852-45.270043 30.30112-8.268314 62.322417-6.332219 94.600565 0.463558 4.755304 1.356904 5.270027 1.52575 10.121522 2.948145 54.431703 15.96767 88.530312 93.28664 77.350692 187.337689-6.102998 51.255361-24.862247 95.90528-51.473325 122.520451-19.778462 19.777439-43.042305 28.535917-66.002226 24.968671-3.430122 0.715291-8.667404 2.402723-11.506055 5.241374-0.815575 0.815575-2.51324 2.51324-2.177596 7.924483 0.008186 0.339738 0.017396 0.674359 0.036839 1.027399 4.397147 34.030048 11.395538 68.413136 20.782326 102.232382 8.630564 31.080879 19.227923 61.552891 31.540344 90.616834 5.378497 7.695263 9.511631 10.083659 11.175527 10.258645 1.191128 0.122797 3.219321-1.045819 3.232624-1.060145 14.843056-14.155395 34.323737-20.589944 56.618509-18.906605 41.977044 3.177366 89.915869 34.616402 128.232546 84.118839 58.746986 75.888388 72.586179 163.570379 32.196283 203.960275-0.127913 0.128937-1.027399 1.004887-1.164522 1.137916-1.958608 1.87572-4.0175 3.563152-6.14393 5.112438-23.689538 25.89988-51.662637 43.540655-82.802868 52.0474-144.178727 39.331797-310.87633-123.505895-379.505383-370.694717C151.136186 399.627676 174.669158 212.361619 262.635629 124.391055L262.640746 124.396171zM436.129009 358.951255c18.96698-18.965957 33.145911-54.348816 37.947264-94.66094 8.367575-70.293973-14.97711-128.343063-40.497343-136.112004-3.906983-1.187035-6.457062-1.828648-8.492418-2.375094-24.125467-6.456039-51.244104-7.139607-73.66372-1.031493-20.332071 5.54018-38.936801 16.677844-55.335283 33.072233-75.107605 75.107605-94.184079 247.76392-46.406936 419.891186 59.512419 214.360136 206.722178 369.011378 321.468572 337.705372 23.006993-6.29538 43.9817-19.887956 61.746296-39.914058 1.315972-1.458211 2.788509-2.759857 4.402263-3.860934 0.916882-0.599657 1.819438-1.246387 2.63706-2.003634 19.865443-19.865443 8.547677-84.549651-35.842323-141.884474-29.339212-37.909401-66.385966-63.781652-94.372368-65.900919-13.119809-0.989537-18.378579 4.041036-20.107967 5.686513-1.453095 1.453095-17.603937 16.627702-41.143049 14.156418-17.947767-1.88493-33.723056-12.977569-46.856168-32.95353-0.77055-1.169639-1.443885-2.416026-2.003634-3.718695-13.476943-31.590486-25.078165-64.767096-34.479279-98.604762-10.245342-36.913724-17.806551-74.480318-22.474874-111.670336-0.209778-1.650593-0.24764-3.305279-0.113587-4.920056-0.146333-15.96767 5.369288-29.980825 16.081257-40.692794 16.980743-16.980743 41.147142-19.167548 43.851741-19.355837 2.339278-0.165776 4.705162 0.013303 7.002484 0.549515C419.727457 372.72291 429.626921 365.454366 436.129009 358.951255L436.129009 358.951255zM601.552595 418.841274c7.993045-7.993045 20.796652-9.377578 30.43108-2.733251 18.237363 12.583596 30.481222 31.526017 34.488489 53.331649 3.985778 21.799492-0.738827 43.861974-13.334703 62.09422-7.512091 10.859325-22.355147 13.56904-33.20424 6.080485-10.854209-7.488555-13.579273-22.364357-6.080485-33.20424 5.342682-7.750521 7.355525-17.114796 5.64865-26.372647-1.677199-9.249665-6.887874-17.288758-14.636349-22.648836-10.859325-7.483438-13.56904-22.340821-6.085602-33.200146C599.61343 420.98203 600.543615 419.84923 601.552595 418.841274L601.552595 418.841274zM659.808394 363.01992c7.993045-7.987928 20.783349-9.391904 30.408567-2.737344 66.175165 45.654806 82.854033 136.620587 37.184901 202.778356-7.471159 10.816347-22.355147 13.573133-33.205263 6.079462-10.839883-7.474228-13.563924-22.350031-6.075369-33.18582 30.705326-44.4954 19.48375-105.672738-25.010627-136.378064-10.854209-7.488555-13.579273-22.364357-6.081509-33.209356 0.839111-1.206478 1.765203-2.335185 2.774183-3.348258L659.808394 363.018897zM706.714703 279.258215c7.988951-7.988951 20.778232-9.395998 30.417777-2.746554 55.036477 37.982056 91.988064 95.124498 104.042611 160.900573 12.060687 65.773006-2.218528 132.302235-40.206724 187.342806-7.474228 10.822486-22.345937 13.564947-33.20424 6.080485-10.854209-7.493671-13.563924-22.350031-6.079462-33.209356 30.737048-44.532239 42.293245-98.376565 32.53909-151.606907-9.771551-53.238528-39.670511-99.480712-84.210937-130.22697-10.839883-7.474228-13.573133-22.341844-6.089695-33.20424C704.766328 281.371342 705.706747 280.267195 706.714703 279.258215L706.714703 279.258215zM706.714703 279.258215" p-id="5954"></path></svg>