<?xml version="1.0" standalone="no"?><!DOCTYPE svg PUBLIC "-//W3C//DTD SVG 1.1//EN" "http://www.w3.org/Graphics/SVG/1.1/DTD/svg11.dtd"><svg t="1535359675885" class="icon" style="" viewBox="0 0 1024 1024" version="1.1" xmlns="http://www.w3.org/2000/svg" p-id="5909" xmlns:xlink="http://www.w3.org/1999/xlink" width="32" height="32"><defs><style type="text/css"></style></defs><path d="M512.147294 186.491129A325.518248 325.518248 0 1 0 837.665543 512.009378 325.518248 325.518248 0 0 0 512.147294 186.491129zM433.085164 286.895185a125.033499 125.033499 0 0 1 164.052574 5.389375 129.344999 129.344999 0 0 1 41.336506 96.362024 127.189249 127.189249 0 0 1-87.52345 120.021381 124.656243 124.656243 0 0 1-97.008749-7.976275 127.512612 127.512612 0 0 1-62.462856-75.45125 129.344999 129.344999 0 0 1 41.605975-138.345255z m291.726867 432.389554a31.851206 31.851206 0 0 1-17.299894 26.084575 96.308131 96.308131 0 0 1-32.929081 10.77875 486.930029 486.930029 0 0 1-83.050268 5.389375H511.392782c-28.509794 0-57.073481 0.269469-85.583275 0-18.054406-0.269469-36.162706-0.970087-53.893749-2.209644a148.746749 148.746749 0 0 1-48.127119-10.185919 39.719694 39.719694 0 0 1-20.587412-17.138212 35.246512 35.246512 0 0 1-3.88035-16.168125 159.148243 159.148243 0 0 1 19.725112-85.960531 162.166293 162.166293 0 0 1 85.637169-73.564968 166.477793 166.477793 0 0 1 59.983743-10.77875h16.599275a2.317431 2.317431 0 0 1 1.616812 3.88035l-1.185662 1.131769a17.084319 17.084319 0 0 0 0 24.036612l16.168125 16.545381a3.826456 3.826456 0 0 1 1.023981 3.503094l-23.228206 90.918756a43.9773 43.9773 0 0 1-4.580969 12.126093 17.138212 17.138212 0 0 0 3.01805 19.886794l25.815106 21.180244a16.653169 16.653169 0 0 0 23.659356 0l25.815107-21.180244a17.246 17.246 0 0 0 3.01805-19.886794 44.085087 44.085087 0 0 1-4.634863-12.126093l-23.174312-90.918756a3.826456 3.826456 0 0 1 1.023981-3.503094l16.168125-16.545381a17.084319 17.084319 0 0 0 0-24.036612l-1.185663-1.185663a2.263537 2.263537 0 0 1 1.562919-3.826456h17.246a164.106468 164.106468 0 0 1 111.075018 41.929337 156.723024 156.723024 0 0 1 52.223044 92.319993 168.903012 168.903012 0 0 1 2.101856 39.504119z" p-id="5910" fill="#8a8a8a"></path><path d="M512.147294 1024A512.583454 512.583454 0 0 1 0.156672 498.751515C7.378434 220.605873 238.42094-2.35257 516.674369 0.018755a508.541423 508.541423 0 0 1 277.175555 84.397612 16.545381 16.545381 0 0 1 4.3115 23.335994 16.491487 16.491487 0 0 1-22.581481 4.203712 477.983666 477.983666 0 1 0 170.681506 197.358912 16.437594 16.437594 0 0 1 7.383443-21.5575 16.168125 16.168125 0 0 1 22.4198 7.652912A506.06231 506.06231 0 0 1 1024.137917 512.009378a512.583454 512.583454 0 0 1-511.990623 511.990622z" p-id="5911" fill="#8a8a8a"></path><path d="M927.183061 223.354454m-18.862812 0a18.862812 18.862812 0 1 0 37.725625 0 18.862812 18.862812 0 1 0-37.725625 0Z" p-id="5912" fill="#8a8a8a"></path></svg>