<?xml version="1.0" standalone="no"?><!DOCTYPE svg PUBLIC "-//W3C//DTD SVG 1.1//EN" "http://www.w3.org/Graphics/SVG/1.1/DTD/svg11.dtd"><svg t="1535360346332" class="icon" style="" viewBox="0 0 1024 1024" version="1.1" xmlns="http://www.w3.org/2000/svg" p-id="7422" xmlns:xlink="http://www.w3.org/1999/xlink" width="32" height="32"><defs><style type="text/css"></style></defs><path d="M916.672 269.44h-235.584a128.32 128.32 0 0 0 42.176-97.792c0-34.816-16.896-54.784-30.976-65.344-16.576-12.416-38.656-19.008-64.128-19.008-42.432 0-87.936 17.856-116.224 47.36-28.288-29.44-73.728-47.36-116.224-47.36-25.344 0-47.552 6.592-64.128 19.008-14.08 10.496-30.976 30.464-30.976 65.344a127.808 127.808 0 0 0 42.176 97.792h-235.52a60.224 60.224 0 0 0-60.544 59.84V390.4c0 33.024 27.136 59.84 60.544 59.84h10.176a52.8 52.8 0 0 0-0.192 4.544v367.872c0 33.024 27.136 59.904 60.48 59.904h668.416c33.344 0 60.544-26.88 60.544-59.904V454.784c0-1.536-0.128-3.008-0.256-4.544h10.176a60.288 60.288 0 0 0 60.544-59.84v-61.056a60.16 60.16 0 0 0-60.48-59.904zM566.016 161.408a119.04 119.04 0 0 1 62.144-18.88c39.168 0 39.168 21.888 39.168 29.12 0 14.464 0 58.496-70.144 83.328-20.48 7.168-41.344 10.816-57.344 12.672V199.552c0.128-18.176 16.448-31.68 26.176-38.144z m-170.24-18.88c39.744 0 88.256 26.24 88.256 56.96v68.096a266.624 266.624 0 0 1-57.28-12.672c-70.208-24.832-70.208-68.8-70.208-83.264 0-7.232 0-29.12 39.232-29.12zM102.656 390.4v-61.056c0-2.496 2.048-4.544 4.608-4.544h376.768v70.208H107.2a4.608 4.608 0 0 1-4.544-4.608z m70.528 432.256V454.784c0-2.496 2.048-4.544 4.608-4.544h306.24v376.896H177.728a4.48 4.48 0 0 1-4.544-4.48z m677.632-367.872v367.872c0 2.496-2.112 4.48-4.672 4.48H539.968V450.24h306.176c2.56 0 4.672 2.048 4.672 4.544zM921.344 390.4c0 2.56-2.048 4.608-4.608 4.608H539.968V324.736h376.768c2.56 0 4.608 2.048 4.608 4.544V390.4z m0 0" p-id="7423" fill="#8a8a8a"></path></svg>