<?xml version="1.0" standalone="no"?><!DOCTYPE svg PUBLIC "-//W3C//DTD SVG 1.1//EN" "http://www.w3.org/Graphics/SVG/1.1/DTD/svg11.dtd"><svg t="1535420159786" class="icon" style="" viewBox="0 0 1024 1024" version="1.1" xmlns="http://www.w3.org/2000/svg" p-id="1689" xmlns:xlink="http://www.w3.org/1999/xlink" width="26" height="26"><defs><style type="text/css"></style></defs><path d="M732.861712 957.384813 288.372292 957.384813c-87.201038 0-158.1356-70.922283-158.1356-158.111041L130.236692 418.083004c0-87.194898 70.934562-158.1356 158.1356-158.1356l444.48942 0c87.200014 0 158.14788 70.940702 158.14788 158.1356l0 381.190769C891.009591 886.463554 820.061726 957.384813 732.861712 957.384813zM288.372292 335.941192c-45.295626 0-82.141812 36.846186-82.141812 82.141812l0 381.190769c0 45.281299 36.846186 82.116229 82.141812 82.116229l444.48942 0c45.295626 0 82.154092-36.83493 82.154092-82.116229L815.015803 418.083004c0-45.295626-36.859489-82.141812-82.154092-82.141812L288.372292 335.941192z" p-id="1690" fill="#1296db"></path><path d="M459.941855 329.84945c-39.692001 0-84.615143-22.727631-120.163777-60.792575-25.021883-26.797319-42.585911-58.337663-49.438992-88.808652-8.373715-37.156248-0.098237-70.657246 22.684652-91.925642 15.188934-14.19428 35.362392-21.707394 58.293661-21.707394 39.692001 0 84.616166 22.727631 120.152521 60.793598 25.021883 26.79118 42.584887 58.3305 49.449225 88.802512 8.375761 37.149085 0.11154 70.657246-22.671349 91.924619C503.046582 322.341452 482.874147 329.84945 459.941855 329.84945zM371.318422 142.608975c-3.735068 0-5.888104 0.754177-6.431479 1.255597-0.804319 0.754177-3.364631 6.580882-0.420579 19.685341 3.89675 17.253966 15.138792 36.809347 30.848589 53.643758 23.64963 25.325805 49.500391 36.660968 64.627926 36.660968 3.735068 0 5.900384-0.754177 6.443759-1.260713 0.803295-0.741897 3.351328-6.568602 0.409322-19.678178-3.897773-17.254989-15.139815-36.804231-30.861892-53.644781C412.284439 153.945161 386.445958 142.608975 371.318422 142.608975z" p-id="1691" fill="#1296db"></path><path d="M561.33001 329.84945c-0.013303 0-0.013303 0-0.013303 0-22.944572 0-43.10575-7.514137-58.31822-21.719674-43.230594-40.36636-31.726585-118.060883 26.765597-180.722014 35.547611-38.064944 80.472799-60.793598 120.175033-60.793598 22.931269 0 43.104727 7.514137 58.306964 21.725814 43.228547 40.36022 31.724539 118.055766-26.76662 180.715875C645.932874 307.121819 601.020988 329.84945 561.33001 329.84945zM649.940141 142.608975c-15.127536 0-40.977273 11.336186-64.626903 36.660968-32.751938 35.085076-35.497469 68.598354-30.453592 73.316819 0.557702 0.512676 2.721994 1.267876 6.458085 1.267876 0 0 0 0 0.013303 0 15.115256 0 40.953737-11.335163 64.602344-36.660968 32.752961-35.084053 35.498492-68.597331 30.452569-73.316819C655.827221 143.363152 653.675208 142.608975 649.940141 142.608975z" p-id="1692" fill="#1296db"></path><path d="M510.629281 950.395632c-20.990057 0-37.997406-17.006326-37.997406-37.996382L472.631876 310.269509c0-20.983917 17.007349-37.997406 37.997406-37.997406s37.996382 17.013489 37.996382 37.997406l0 602.12974C548.625664 933.389306 531.619338 950.395632 510.629281 950.395632z" p-id="1693" fill="#1296db"></path><path d="M848.424704 646.666072 176.471712 646.666072c-20.990057 0-37.997406-17.006326-37.997406-37.996382 0-20.992103 17.007349-37.998429 37.997406-37.998429l671.952992 0c20.98801 0 37.996382 17.006326 37.996382 37.998429C886.420063 629.659747 869.411691 646.666072 848.424704 646.666072z" p-id="1694" fill="#1296db"></path></svg>